    <svg width="192" height="68" viewBox="0 0 192 68" fill="none" xmlns="http://www.w3.org/2000/svg">
        <path d="M26.5 25.5L30.5 20.5L31 15.5L29 10.5L23 10L17.5 12L12.5 16L9 21L2 25.5H4.5L7.5 24.5L7 28L6.5 31L7 35.5L8 39.5L10 43L12.5 45.5L22 51L14.5 44.5L12.5 39.5L11.5 35V30.5L12.5 24.5L14.5 20.5L18.5 16.5L17 20L14.5 24L14 29L13.5 34.5L14.5 39.5L18.5 45.5L24 50.5L27.5 51H30.5V55.5L33 58L36.5 60.5L38 57L37.5 55.5L35 52.5L39.5 50.5L42 47.5L39 46H35L30.5 50L26.5 47L23.5 43.5L22 41L21.5 37V32.5L23.5 29L25.5 30.5H29L28 28L26.5 25.5Z" fill="#FEFFF8" stroke="white"/>
        <path d="M9.5 36.5C7.8087 31.9816 7.18463 31.2302 7 35L7.5 40L9.5 43C11.9549 44.5522 12.4735 44.1722 11 40C9.38638 39.2657 9.39854 38.2899 9.5 36.5Z" fill="#010101" stroke="black"/>
        <path d="M29 16.5C29.6449 13.9686 28.6655 13.6139 25 14.5L24.5 15C24.5 15 22.8149 15.7281 22.5 17.5C20.2041 18.7047 21.0001 19 20.5 20.5C20 22 25 19 22.5 23C20 27 26 22 26 22C27.3387 21.3755 28.1602 21.0949 28 19L29 16.5Z" fill="#121212" stroke="black"/>
        <rect width="4" height="57" fill="white"/>
        <path d="M32.2031 43.0859C32.2031 40.6016 32.6875 38.3672 33.6562 36.3828C34.6406 34.3984 36 32.8672 37.7344 31.7891C39.4844 30.7109 41.4766 30.1719 43.7109 30.1719C47.1641 30.1719 49.9531 31.3672 52.0781 33.7578C54.2188 36.1484 55.2891 39.3281 55.2891 43.2969V43.6016C55.2891 46.0703 54.8125 48.2891 53.8594 50.2578C52.9219 52.2109 51.5703 53.7344 49.8047 54.8281C48.0547 55.9219 46.0391 56.4688 43.7578 56.4688C40.3203 56.4688 37.5312 55.2734 35.3906 52.8828C33.2656 50.4922 32.2031 47.3281 32.2031 43.3906V43.0859ZM36.5625 43.6016C36.5625 46.4141 37.2109 48.6719 38.5078 50.375C39.8203 52.0781 41.5703 52.9297 43.7578 52.9297C45.9609 52.9297 47.7109 52.0703 49.0078 50.3516C50.3047 48.6172 50.9531 46.1953 50.9531 43.0859C50.9531 40.3047 50.2891 38.0547 48.9609 36.3359C47.6484 34.6016 45.8984 33.7344 43.7109 33.7344C41.5703 33.7344 39.8438 34.5859 38.5312 36.2891C37.2188 37.9922 36.5625 40.4297 36.5625 43.6016ZM65.4375 56H61.1016V30.6406H65.4375V56ZM60.75 23.9141C60.75 23.2109 60.9609 22.6172 61.3828 22.1328C61.8203 21.6484 62.4609 21.4062 63.3047 21.4062C64.1484 21.4062 64.7891 21.6484 65.2266 22.1328C65.6641 22.6172 65.8828 23.2109 65.8828 23.9141C65.8828 24.6172 65.6641 25.2031 65.2266 25.6719C64.7891 26.1406 64.1484 26.375 63.3047 26.375C62.4609 26.375 61.8203 26.1406 61.3828 25.6719C60.9609 25.2031 60.75 24.6172 60.75 23.9141ZM89.4844 42.6406V56H84.9844V21.875H97.5703C101.305 21.875 104.227 22.8281 106.336 24.7344C108.461 26.6406 109.523 29.1641 109.523 32.3047C109.523 35.6172 108.484 38.1719 106.406 39.9688C104.344 41.75 101.383 42.6406 97.5234 42.6406H89.4844ZM89.4844 38.9609H97.5703C99.9766 38.9609 101.82 38.3984 103.102 37.2734C104.383 36.1328 105.023 34.4922 105.023 32.3516C105.023 30.3203 104.383 28.6953 103.102 27.4766C101.82 26.2578 100.062 25.625 97.8281 25.5781H89.4844V38.9609ZM113.109 43.0859C113.109 40.6016 113.594 38.3672 114.562 36.3828C115.547 34.3984 116.906 32.8672 118.641 31.7891C120.391 30.7109 122.383 30.1719 124.617 30.1719C128.07 30.1719 130.859 31.3672 132.984 33.7578C135.125 36.1484 136.195 39.3281 136.195 43.2969V43.6016C136.195 46.0703 135.719 48.2891 134.766 50.2578C133.828 52.2109 132.477 53.7344 130.711 54.8281C128.961 55.9219 126.945 56.4688 124.664 56.4688C121.227 56.4688 118.438 55.2734 116.297 52.8828C114.172 50.4922 113.109 47.3281 113.109 43.3906V43.0859ZM117.469 43.6016C117.469 46.4141 118.117 48.6719 119.414 50.375C120.727 52.0781 122.477 52.9297 124.664 52.9297C126.867 52.9297 128.617 52.0703 129.914 50.3516C131.211 48.6172 131.859 46.1953 131.859 43.0859C131.859 40.3047 131.195 38.0547 129.867 36.3359C128.555 34.6016 126.805 33.7344 124.617 33.7344C122.477 33.7344 120.75 34.5859 119.438 36.2891C118.125 37.9922 117.469 40.4297 117.469 43.6016ZM145.734 30.6406L145.875 33.8281C147.812 31.3906 150.344 30.1719 153.469 30.1719C158.828 30.1719 161.531 33.1953 161.578 39.2422V56H157.242V39.2188C157.227 37.3906 156.805 36.0391 155.977 35.1641C155.164 34.2891 153.891 33.8516 152.156 33.8516C150.75 33.8516 149.516 34.2266 148.453 34.9766C147.391 35.7266 146.562 36.7109 145.969 37.9297V56H141.633V30.6406H145.734ZM167.062 43.1094C167.062 39.2188 167.984 36.0938 169.828 33.7344C171.672 31.3594 174.086 30.1719 177.07 30.1719C180.039 30.1719 182.391 31.1875 184.125 33.2188V20H188.461V56H184.477L184.266 53.2812C182.531 55.4062 180.117 56.4688 177.023 56.4688C174.086 56.4688 171.688 55.2656 169.828 52.8594C167.984 50.4531 167.062 47.3125 167.062 43.4375V43.1094ZM171.398 43.6016C171.398 46.4766 171.992 48.7266 173.18 50.3516C174.367 51.9766 176.008 52.7891 178.102 52.7891C180.852 52.7891 182.859 51.5547 184.125 49.0859V37.4375C182.828 35.0469 180.836 33.8516 178.148 33.8516C176.023 33.8516 174.367 34.6719 173.18 36.3125C171.992 37.9531 171.398 40.3828 171.398 43.6016Z" fill="white"/>
        </svg>
    